<?xml version="1.0" encoding="UTF-8" standalone="no"?>
<!-- Created with Inkscape (http://www.inkscape.org/) -->

<svg
   width="212mm"
   height="45mm"
   viewBox="0 0 212 45"
   version="1.1"
   id="svg1"
   xml:space="preserve"
   inkscape:version="1.4.2 (f4327f4, 2025-05-13)"
   sodipodi:docname="last.svg"
   xmlns:inkscape="http://www.inkscape.org/namespaces/inkscape"
   xmlns:sodipodi="http://sodipodi.sourceforge.net/DTD/sodipodi-0.dtd"
   xmlns="http://www.w3.org/2000/svg"
   xmlns:svg="http://www.w3.org/2000/svg"><sodipodi:namedview
     id="namedview1"
     pagecolor="#ffffff"
     bordercolor="#000000"
     borderopacity="0.25"
     inkscape:showpageshadow="2"
     inkscape:pageopacity="0.0"
     inkscape:pagecheckerboard="0"
     inkscape:deskcolor="#d1d1d1"
     inkscape:document-units="mm"
     inkscape:zoom="1.3772587"
     inkscape:cx="361.58784"
     inkscape:cy="10.52816"
     inkscape:window-width="1920"
     inkscape:window-height="991"
     inkscape:window-x="-9"
     inkscape:window-y="-9"
     inkscape:window-maximized="1"
     inkscape:current-layer="layer1" /><defs
     id="defs1"><linearGradient
       gradientUnits="userSpaceOnUse"
       id="SVGID_1_-3"
       x1="6.078043"
       x2="18.024534"
       y1="9.3549814"
       y2="14.925722">

<stop
   offset="0"
   style="stop-color:#FFFFFF;stop-opacity:0.2"
   id="stop4-1" />

<stop
   offset="1"
   style="stop-color:#FFFFFF;stop-opacity:0"
   id="stop5-2" />

</linearGradient><linearGradient
       gradientUnits="userSpaceOnUse"
       id="SVGID_1_-3-5"
       x1="6.078043"
       x2="18.024534"
       y1="9.3549814"
       y2="14.925722">

<stop
   offset="0"
   style="stop-color:#FFFFFF;stop-opacity:0.2"
   id="stop4-1-0" />

<stop
   offset="1"
   style="stop-color:#FFFFFF;stop-opacity:0"
   id="stop5-2-9" />

</linearGradient><linearGradient
       id="paint0_linear"
       x1="12.9634"
       y1="22.2512"
       x2="9.4604101"
       y2="-3.1345899"
       gradientUnits="userSpaceOnUse"
       gradientTransform="matrix(0.86414896,0,0,0.54357575,-5.0726688,-1.7516563)"><stop
         stop-color="#FF0000"
         id="stop18" /><stop
         offset="0.2317"
         stop-color="#FF1500"
         id="stop19" /><stop
         offset="0.7367"
         stop-color="#FF3D00"
         id="stop20" /><stop
         offset="0.9987"
         stop-color="#FF4C00"
         id="stop21" /></linearGradient><linearGradient
       id="paint1_linear"
       x1="17.068001"
       y1="21.685101"
       x2="13.565"
       y2="-3.7007301"
       gradientUnits="userSpaceOnUse"
       gradientTransform="matrix(0.86414896,0,0,0.54357575,-5.0726688,-1.7516563)"><stop
         stop-color="#FF0000"
         id="stop22" /><stop
         offset="0.2317"
         stop-color="#FF1500"
         id="stop23" /><stop
         offset="0.7367"
         stop-color="#FF3D00"
         id="stop24" /><stop
         offset="0.9987"
         stop-color="#FF4C00"
         id="stop25" /></linearGradient><linearGradient
       id="paint2_linear"
       x1="10.7347"
       y1="22.558701"
       x2="7.2316999"
       y2="-2.82709"
       gradientUnits="userSpaceOnUse"
       gradientTransform="matrix(0.86414896,0,0,0.54357575,-5.0726688,-1.7516563)"><stop
         stop-color="#FF0000"
         id="stop26" /><stop
         offset="0.2317"
         stop-color="#FF1500"
         id="stop27" /><stop
         offset="0.7367"
         stop-color="#FF3D00"
         id="stop28" /><stop
         offset="0.9987"
         stop-color="#FF4C00"
         id="stop29" /></linearGradient><linearGradient
       id="paint3_linear"
       x1="12.869"
       y1="17.927"
       x2="5.2143202"
       y2="-3.9342"
       gradientUnits="userSpaceOnUse"
       gradientTransform="matrix(0.86414896,0,0,0.54357575,-5.0726688,-1.7516563)"><stop
         stop-color="#FF8000"
         id="stop30" /><stop
         offset="0.6388"
         stop-color="#FF5B00"
         id="stop31" /><stop
         offset="0.9987"
         stop-color="#FF4C00"
         id="stop32" /></linearGradient><radialGradient
       id="paint4_radial"
       cx="0"
       cy="0"
       r="1"
       gradientUnits="userSpaceOnUse"
       gradientTransform="matrix(8.8148379,0,0,5.5447988,8.8810037,-1.6778023)"><stop
         offset="0.00134333"
         stop-color="#FFED1C"
         stop-opacity="0.6"
         id="stop33" /><stop
         offset="0.9477"
         stop-color="#FFED1C"
         stop-opacity="0.0264782"
         id="stop34" /><stop
         offset="0.9914"
         stop-color="#FFED1C"
         stop-opacity="0"
         id="stop35" /></radialGradient><linearGradient
       id="paint5_linear"
       x1="9.8966904"
       y1="3.33922"
       x2="12.6645"
       y2="18.864799"
       gradientUnits="userSpaceOnUse"
       gradientTransform="matrix(0.86414896,0,0,0.54357575,-5.0726688,-1.7516563)"><stop
         stop-color="#FF8000"
         id="stop36" /><stop
         offset="0.022669"
         stop-color="#FE7F02"
         stop-opacity="0.9773"
         id="stop37" /><stop
         offset="0.6663"
         stop-color="#ED582A"
         stop-opacity="0.3337"
         id="stop38" /><stop
         offset="1"
         stop-color="#E74939"
         stop-opacity="0"
         id="stop39" /></linearGradient><linearGradient
       id="paint6_linear"
       x1="12.046"
       y1="20.115601"
       x2="12.6442"
       y2="9.2143297"
       gradientUnits="userSpaceOnUse"
       gradientTransform="matrix(0.86414896,0,0,0.54357575,-5.0726688,-1.7516563)"><stop
         stop-color="#FFBC47"
         id="stop40" /><stop
         offset="0.1869"
         stop-color="#FFB137"
         stop-opacity="0.8131"
         id="stop41" /><stop
         offset="0.7223"
         stop-color="#FF940F"
         stop-opacity="0.2777"
         id="stop42" /><stop
         offset="1"
         stop-color="#FF8900"
         stop-opacity="0"
         id="stop43" /></linearGradient><radialGradient
       id="paint7_radial"
       cx="0"
       cy="0"
       r="1"
       gradientUnits="userSpaceOnUse"
       gradientTransform="matrix(6.8187661,0,0,3.4819778,5.2082835,7.5836587)"><stop
         offset="0.00134333"
         stop-color="#FFBC47"
         id="stop44" /><stop
         offset="0.2941"
         stop-color="#FFBF4B"
         stop-opacity="0.7068"
         id="stop45" /><stop
         offset="0.5624"
         stop-color="#FEC656"
         stop-opacity="0.4382"
         id="stop46" /><stop
         offset="0.8201"
         stop-color="#FCD368"
         stop-opacity="0.1801"
         id="stop47" /><stop
         offset="1"
         stop-color="#FBE07A"
         stop-opacity="0"
         id="stop48" /></radialGradient><radialGradient
       id="paint8_radial"
       cx="0"
       cy="0"
       r="1"
       gradientUnits="userSpaceOnUse"
       gradientTransform="matrix(6.6086484,0,0,3.3746813,5.2082835,7.4073237)"><stop
         offset="0.00134333"
         stop-color="white"
         id="stop49" /><stop
         offset="1"
         stop-color="white"
         stop-opacity="0"
         id="stop50" /></radialGradient><radialGradient
       id="paint9_radial"
       cx="0"
       cy="0"
       r="1"
       gradientUnits="userSpaceOnUse"
       gradientTransform="matrix(8.1182562,0,0,5.9456316,2.3105679,8.1740917)"><stop
         offset="0.00134333"
         stop-color="#FFED1C"
         stop-opacity="0.6"
         id="stop51" /><stop
         offset="0.9477"
         stop-color="#FFED1C"
         stop-opacity="0.0264782"
         id="stop52" /><stop
         offset="0.9914"
         stop-color="#FFED1C"
         stop-opacity="0"
         id="stop53" /></radialGradient><radialGradient
       id="paint10_radial"
       cx="0"
       cy="0"
       r="1"
       gradientUnits="userSpaceOnUse"
       gradientTransform="matrix(-0.12925487,1.6118924,-2.0801273,-0.06599996,5.2086301,7.4068887)"><stop
         offset="0.00134333"
         stop-color="white"
         id="stop54" /><stop
         offset="1"
         stop-color="white"
         stop-opacity="0"
         id="stop55" /></radialGradient><radialGradient
       id="paint11_radial"
       cx="0"
       cy="0"
       r="1"
       gradientUnits="userSpaceOnUse"
       gradientTransform="matrix(2.9123377,0,0,1.8319481,6.6267841,0.41359579)"><stop
         offset="0.00134333"
         stop-color="#FFED1C"
         id="stop56" /><stop
         offset="0.1997"
         stop-color="#FFEE2B"
         stop-opacity="0.8013"
         id="stop57" /><stop
         offset="0.5839"
         stop-color="#FFF254"
         stop-opacity="0.4167"
         id="stop58" /><stop
         offset="1"
         stop-color="#FFF686"
         stop-opacity="0"
         id="stop59" /></radialGradient><radialGradient
       id="paint12_radial"
       cx="0"
       cy="0"
       r="1"
       gradientUnits="userSpaceOnUse"
       gradientTransform="matrix(1.3050847,-1.2361533,0.4462982,0.18643798,1.8245781,1.294955)"><stop
         offset="0.00134333"
         stop-color="#FFED1C"
         stop-opacity="0.6"
         id="stop60" /><stop
         offset="0.9477"
         stop-color="#FFED1C"
         stop-opacity="0.0264782"
         id="stop61" /><stop
         offset="0.9914"
         stop-color="#FFED1C"
         stop-opacity="0"
         id="stop62" /></radialGradient><radialGradient
       id="paint13_radial"
       cx="0"
       cy="0"
       r="1"
       gradientUnits="userSpaceOnUse"
       gradientTransform="matrix(-0.1868585,1.3281843,-0.84959553,-0.0472944,2.2917638,0.13132239)"><stop
         offset="0.00134333"
         stop-color="#FFED1C"
         id="stop63" /><stop
         offset="0.1997"
         stop-color="#FFEE2B"
         stop-opacity="0.8013"
         id="stop64" /><stop
         offset="0.5839"
         stop-color="#FFF254"
         stop-opacity="0.4167"
         id="stop65" /><stop
         offset="1"
         stop-color="#FFF686"
         stop-opacity="0"
         id="stop66" /></radialGradient><radialGradient
       id="paint14_radial"
       cx="0"
       cy="0"
       r="1"
       gradientUnits="userSpaceOnUse"
       gradientTransform="matrix(9.0873905,0,0,5.7162426,5.9797965,0.17836899)"><stop
         offset="0.00134333"
         stop-color="#FF4C00"
         id="stop67" /><stop
         offset="0.135"
         stop-color="#FF5B0C"
         stop-opacity="0.8661"
         id="stop68" /><stop
         offset="0.3941"
         stop-color="#FF842C"
         stop-opacity="0.6067"
         id="stop69" /><stop
         offset="0.7491"
         stop-color="#FFC45F"
         stop-opacity="0.2512"
         id="stop70" /><stop
         offset="1"
         stop-color="#FFF686"
         stop-opacity="0"
         id="stop71" /></radialGradient><radialGradient
       id="paint15_radial"
       cx="0"
       cy="0"
       r="1"
       gradientUnits="userSpaceOnUse"
       gradientTransform="matrix(4.8234375,0,0,3.0340876,10.112934,4.8094117)"><stop
         offset="0.00134333"
         stop-color="#FFED1C"
         id="stop72" /><stop
         offset="0.1997"
         stop-color="#FFEE2B"
         stop-opacity="0.8013"
         id="stop73" /><stop
         offset="0.5839"
         stop-color="#FFF254"
         stop-opacity="0.4167"
         id="stop74" /><stop
         offset="1"
         stop-color="#FFF686"
         stop-opacity="0"
         id="stop75" /></radialGradient><radialGradient
       id="paint16_radial"
       cx="0"
       cy="0"
       r="1"
       gradientUnits="userSpaceOnUse"
       gradientTransform="matrix(5.1411679,0,0,3.2339496,0.23925393,5.8908017)"><stop
         offset="0.00134333"
         stop-color="#FFED1C"
         id="stop76" /><stop
         offset="0.1997"
         stop-color="#FFEE2B"
         stop-opacity="0.8013"
         id="stop77" /><stop
         offset="0.5839"
         stop-color="#FFF254"
         stop-opacity="0.4167"
         id="stop78" /><stop
         offset="1"
         stop-color="#FFF686"
         stop-opacity="0"
         id="stop79" /></radialGradient><radialGradient
       id="paint17_radial"
       cx="0"
       cy="0"
       r="1"
       gradientUnits="userSpaceOnUse"
       gradientTransform="matrix(0.59740951,5.5267651,-5.3410792,0.22844048,5.131547,5.2371517)"><stop
         stop-color="#FF4C00"
         stop-opacity="0"
         id="stop80" /><stop
         offset="0.9874"
         stop-color="#FF4C00"
         stop-opacity="0.9888"
         id="stop81" /><stop
         offset="0.9987"
         stop-color="#FF4C00"
         id="stop82" /></radialGradient><linearGradient
       gradientUnits="userSpaceOnUse"
       id="SVGID_1_-3-5-2"
       x1="6.078043"
       x2="18.024534"
       y1="9.3549814"
       y2="14.925722">

<stop
   offset="0"
   style="stop-color:#FFFFFF;stop-opacity:0.2"
   id="stop4-1-0-6" />

<stop
   offset="1"
   style="stop-color:#FFFFFF;stop-opacity:0"
   id="stop5-2-9-6" />

</linearGradient></defs><g
     inkscape:label="Layer 1"
     inkscape:groupmode="layer"
     id="layer1"><text
       xml:space="preserve"
       style="font-style:normal;font-variant:normal;font-weight:normal;font-stretch:normal;font-size:36.2674px;font-family:Pristina;-inkscape-font-specification:Pristina;text-align:start;writing-mode:lr-tb;direction:ltr;text-anchor:start;fill:#44aa00;stroke-width:0.250926"
       x="-0.34326878"
       y="36.108078"
       id="text21"
       transform="scale(1.3208194,0.75710578)"><tspan
         id="tspan21"
         style="font-style:normal;font-variant:normal;font-weight:normal;font-stretch:normal;font-size:36.2674px;font-family:Pristina;-inkscape-font-specification:Pristina;stroke-width:0.250926"
         x="-0.34326878"
         y="36.108078"
         sodipodi:role="line">GunkyR </tspan></text><g
       id="g21-4-6"
       transform="matrix(1.3096,0,0,1.445167,161.18219,2.8070399)"
       style="stroke-width:1.00017;stroke-dasharray:none"><g
         id="g5-0-1-1"
         style="stroke-width:1.00017;stroke-dasharray:none">

<path
   d="m 23.853569,1.6470271 -1.5,-1.5 C 22.246147,0.0391169 22.096245,-0.0175237 21.943413,0.0039607 21.792046,0.0210505 21.656792,0.1064998 21.576225,0.235406 l -2.167236,3.467041 -0.2146,-0.2145996 C 18.547905,2.8398982 17.394585,2.8691951 16.780815,3.5523005 L 0.1274953,22.167047 c -0.1772461,0.197754 -0.168457,0.499512 0.019043,0.687012 l 1,1 c 0.097168,0.09717 0.2250977,0.146485 0.3535156,0.146485 0.1191406,0 0.2382812,-0.04199 0.3334961,-0.127442 L 20.449272,7.2188044 c 0.350098,-0.3149414 0.550781,-0.765625 0.550781,-1.2363281 0,-0.4443359 -0.172851,-0.8623047 -0.487304,-1.1762695 l -0.2146,-0.2145996 3.467041,-2.1672361 c 0.128906,-0.080566 0.214356,-0.2158203 0.231445,-0.3671875 0.01758,-0.1513674 -0.03516,-0.3022463 -0.143066,-0.4101565 z"
   fill="#303c42"
   id="path1-9-1-3"
   style="stroke-width:1.00017;stroke-dasharray:none" />

<polygon
   fill="#d5d0ca"
   points="1.1880422,22.481501 4.2978444,19.005365 4.9952321,19.702753 1.5190969,22.812555 "
   id="polygon1-3-8"
   style="stroke-width:1.00017;stroke-dasharray:none" />

<path
   d="M 19.781303,6.4746637 5.74157,19.035028 4.965569,18.259027 17.524956,4.2202692 c 0.246093,-0.2714841 0.705078,-0.2832029 0.962402,-0.025391 l 0.653503,0.6535034 c 0.002,0.00201 0.0027,0.0047 0.0047,0.00665 0.0017,0.00171 0.0041,0.0022 0.0059,0.00391 l 0.654297,0.6542969 c 0.125489,0.1254883 0.194336,0.2919922 0.194336,0.4692383 0,0.1875 -0.08008,0.3671875 -0.21875,0.4921875 z"
   fill="#d5d0ca"
   id="path2-4-8-9"
   style="fill:#786721;stroke-width:1.00017;stroke-dasharray:none" />

<polygon
   fill="#d5d0ca"
   points="22.702202,1.9097224 21.071831,2.9287655 22.090874,1.2983943 "
   id="polygon2-7-3"
   style="stroke-width:1.00017;stroke-dasharray:none" />

<polygon
   fill="#d7d8d6"
   points="1.1880422,22.481501 4.2978444,19.005365 4.9952321,19.702753 1.5190969,22.812555 "
   id="polygon3-4-4"
   style="fill:#484537;stroke-width:1.00017;stroke-dasharray:none" />

<polygon
   fill="#d7d8d6"
   points="22.702202,1.9097224 21.071831,2.9287655 22.090874,1.2983943 "
   id="polygon4-2-4"
   style="fill:#4d4d4d;stroke-width:1.00017;stroke-dasharray:none" />

<linearGradient
   gradientUnits="userSpaceOnUse"
   id="linearGradient21"
   x1="6.078043"
   x2="18.024534"
   y1="9.3549814"
   y2="14.925722">

<stop
   offset="0"
   style="stop-color:#FFFFFF;stop-opacity:0.2"
   id="stop1-6" />

<stop
   offset="1"
   style="stop-color:#FFFFFF;stop-opacity:0"
   id="stop2-0" />

</linearGradient>

<path
   d="m 23.853569,1.6470271 -1.5,-1.5 C 22.246147,0.0391169 22.096245,-0.0175237 21.943413,0.0039607 21.792046,0.0210505 21.656792,0.1064998 21.576225,0.235406 l -2.167236,3.467041 -0.2146,-0.2145996 C 18.547905,2.8398982 17.394585,2.8691951 16.780815,3.5523005 L 0.1274953,22.167047 c -0.1772461,0.197754 -0.168457,0.499512 0.019043,0.687012 l 1,1 c 0.097168,0.09717 0.2250977,0.146485 0.3535156,0.146485 0.1191406,0 0.2382812,-0.04199 0.3334961,-0.127442 L 20.449272,7.2188044 c 0.350098,-0.3149414 0.550781,-0.765625 0.550781,-1.2363281 0,-0.4443359 -0.172851,-0.8623047 -0.487304,-1.1762695 l -0.2146,-0.2145996 3.467041,-2.1672361 c 0.128906,-0.080566 0.214356,-0.2158203 0.231445,-0.3671875 0.01758,-0.1513674 -0.03516,-0.3022463 -0.143066,-0.4101565 z"
   fill="url(#SVGID_1_)"
   id="path5-8-7-6"
   style="fill:url(#SVGID_1_-3-5);stroke-width:1.00017;stroke-dasharray:none" />

</g><g
         id="g6-7-6"
         style="stroke-width:1.00017;stroke-dasharray:none" /><g
         id="g7-9-1"
         style="stroke-width:1.00017;stroke-dasharray:none" /><g
         id="g8-3-8"
         style="stroke-width:1.00017;stroke-dasharray:none" /><g
         id="g9-1-4"
         style="stroke-width:1.00017;stroke-dasharray:none" /><g
         id="g10-9-9"
         style="stroke-width:1.00017;stroke-dasharray:none" /><g
         id="g11-8-6"
         style="stroke-width:1.00017;stroke-dasharray:none" /><g
         id="g12-6-3"
         style="stroke-width:1.00017;stroke-dasharray:none" /><g
         id="g13-5-7"
         style="stroke-width:1.00017;stroke-dasharray:none" /><g
         id="g14-0-8"
         style="stroke-width:1.00017;stroke-dasharray:none" /><g
         id="g15-2-8"
         style="stroke-width:1.00017;stroke-dasharray:none" /><g
         id="g16-8-2"
         style="stroke-width:1.00017;stroke-dasharray:none" /><g
         id="g17-6-9"
         style="stroke-width:1.00017;stroke-dasharray:none" /><g
         id="g18-0-1"
         style="stroke-width:1.00017;stroke-dasharray:none" /><g
         id="g19-2-3"
         style="stroke-width:1.00017;stroke-dasharray:none" /><g
         id="g20-4-5"
         style="stroke-width:1.00017;stroke-dasharray:none"
         inkscape:label="g20-4-5" /></g><g
       id="g21-4-6-8"
       transform="matrix(1.4894451,0,0,1.3233426,180.02927,-63.004612)"
       style="stroke-width:1.00017;stroke-dasharray:none"><g
         id="g5-0-1-1-0"
         style="stroke-width:1.00017;stroke-dasharray:none"
         transform="translate(-5.0234557,51.638434)">

<path
   d="m 23.853569,1.6470271 -1.5,-1.5 C 22.246147,0.0391169 22.096245,-0.0175237 21.943413,0.0039607 21.792046,0.0210505 21.656792,0.1064998 21.576225,0.235406 l -2.167236,3.467041 -0.2146,-0.2145996 C 18.547905,2.8398982 17.394585,2.8691951 16.780815,3.5523005 L 0.1274953,22.167047 c -0.1772461,0.197754 -0.168457,0.499512 0.019043,0.687012 l 1,1 c 0.097168,0.09717 0.2250977,0.146485 0.3535156,0.146485 0.1191406,0 0.2382812,-0.04199 0.3334961,-0.127442 L 20.449272,7.2188044 c 0.350098,-0.3149414 0.550781,-0.765625 0.550781,-1.2363281 0,-0.4443359 -0.172851,-0.8623047 -0.487304,-1.1762695 l -0.2146,-0.2145996 3.467041,-2.1672361 c 0.128906,-0.080566 0.214356,-0.2158203 0.231445,-0.3671875 0.01758,-0.1513674 -0.03516,-0.3022463 -0.143066,-0.4101565 z"
   fill="#303c42"
   id="path1-9-1-3-1"
   style="stroke-width:1.00017;stroke-dasharray:none" />

<polygon
   fill="#d5d0ca"
   points="4.9952321,19.702753 1.5190969,22.812555 1.1880422,22.481501 4.2978444,19.005365 "
   id="polygon1-3-8-2"
   style="stroke-width:1.00017;stroke-dasharray:none" />

<path
   d="M 19.781303,6.4746637 5.74157,19.035028 4.965569,18.259027 17.524956,4.2202692 c 0.246093,-0.2714841 0.705078,-0.2832029 0.962402,-0.025391 l 0.653503,0.6535034 c 0.002,0.00201 0.0027,0.0047 0.0047,0.00665 0.0017,0.00171 0.0041,0.0022 0.0059,0.00391 l 0.654297,0.6542969 c 0.125489,0.1254883 0.194336,0.2919922 0.194336,0.4692383 0,0.1875 -0.08008,0.3671875 -0.21875,0.4921875 z"
   fill="#d5d0ca"
   id="path2-4-8-9-5"
   style="fill:#786721;stroke-width:1.00017;stroke-dasharray:none" />

<polygon
   fill="#d5d0ca"
   points="21.071831,2.9287655 22.090874,1.2983943 22.702202,1.9097224 "
   id="polygon2-7-3-0"
   style="stroke-width:1.00017;stroke-dasharray:none" />

<polygon
   fill="#d7d8d6"
   points="4.9952321,19.702753 1.5190969,22.812555 1.1880422,22.481501 4.2978444,19.005365 "
   id="polygon3-4-4-9"
   style="fill:#484537;stroke-width:1.00017;stroke-dasharray:none" />

<polygon
   fill="#d7d8d6"
   points="21.071831,2.9287655 22.090874,1.2983943 22.702202,1.9097224 "
   id="polygon4-2-4-4"
   style="fill:#4d4d4d;stroke-width:1.00017;stroke-dasharray:none" />

<linearGradient
   gradientUnits="userSpaceOnUse"
   id="linearGradient24"
   x1="6.078043"
   x2="18.024534"
   y1="9.3549814"
   y2="14.925722">

<stop
   offset="0"
   style="stop-color:#FFFFFF;stop-opacity:0.2"
   id="stop1-6-7" />

<stop
   offset="1"
   style="stop-color:#FFFFFF;stop-opacity:0"
   id="stop2-0-8" />

</linearGradient>

<path
   d="m 23.853569,1.6470271 -1.5,-1.5 C 22.246147,0.0391169 22.096245,-0.0175237 21.943413,0.0039607 21.792046,0.0210505 21.656792,0.1064998 21.576225,0.235406 l -2.167236,3.467041 -0.2146,-0.2145996 C 18.547905,2.8398982 17.394585,2.8691951 16.780815,3.5523005 L 0.1274953,22.167047 c -0.1772461,0.197754 -0.168457,0.499512 0.019043,0.687012 l 1,1 c 0.097168,0.09717 0.2250977,0.146485 0.3535156,0.146485 0.1191406,0 0.2382812,-0.04199 0.3334961,-0.127442 L 20.449272,7.2188044 c 0.350098,-0.3149414 0.550781,-0.765625 0.550781,-1.2363281 0,-0.4443359 -0.172851,-0.8623047 -0.487304,-1.1762695 l -0.2146,-0.2145996 3.467041,-2.1672361 c 0.128906,-0.080566 0.214356,-0.2158203 0.231445,-0.3671875 0.01758,-0.1513674 -0.03516,-0.3022463 -0.143066,-0.4101565 z"
   fill="url(#SVGID_1_)"
   id="path5-8-7-6-3"
   style="fill:url(#SVGID_1_-3-5-2);stroke-width:1.00017;stroke-dasharray:none" />

</g><g
         id="g6-7-6-5"
         style="stroke-width:1.00017;stroke-dasharray:none" /><g
         id="g7-9-1-1"
         style="stroke-width:1.00017;stroke-dasharray:none" /><g
         id="g8-3-8-2"
         style="stroke-width:1.00017;stroke-dasharray:none" /><g
         id="g9-1-4-0"
         style="stroke-width:1.00017;stroke-dasharray:none" /><g
         id="g10-9-9-1"
         style="stroke-width:1.00017;stroke-dasharray:none" /><g
         id="g11-8-6-6"
         style="stroke-width:1.00017;stroke-dasharray:none" /><g
         id="g12-6-3-4"
         style="stroke-width:1.00017;stroke-dasharray:none" /><g
         id="g13-5-7-0"
         style="stroke-width:1.00017;stroke-dasharray:none" /><g
         id="g14-0-8-6"
         style="stroke-width:1.00017;stroke-dasharray:none" /><g
         id="g15-2-8-1"
         style="stroke-width:1.00017;stroke-dasharray:none" /><g
         id="g16-8-2-8"
         style="stroke-width:1.00017;stroke-dasharray:none" /><g
         id="g17-6-9-9"
         style="stroke-width:1.00017;stroke-dasharray:none" /><g
         id="g18-0-1-8"
         style="stroke-width:1.00017;stroke-dasharray:none" /><g
         id="g19-2-3-4"
         style="stroke-width:1.00017;stroke-dasharray:none" /><g
         id="g20-4-5-1"
         style="stroke-width:1.00017;stroke-dasharray:none"
         inkscape:label="g20-4-5" /></g><g
       style="fill:none"
       id="g21"
       transform="matrix(2.0887459,0,0,2.4390387,143.48382,3.6303884)"><path
         d="M 8.5313695,3.9605094 C 8.5857291,2.2428102 4.437809,2.4788796 5.504428,-0.50923791 c 0,0 -2.7850391,0.6895689 -2.296172,2.80485101 C 3.3761414,3.0224548 2.9712279,3.5660307 2.9712279,3.5660307 2.5613801,3.6188337 1.9243726,3.1063178 2.146579,2.3142522 c 0,0 -1.46163854,0.6864599 -1.46163854,1.5685799 0,0.8821696 0.67649884,1.8171196 0.67649884,1.8171196 -1.68385462,-0.229879 -1.51595969,-1.658667 -1.51595969,-1.658667 0,0 -1.06660981,0.897661 -1.06660981,2.590519 0,1.316976 2.3603616,3.4198533 6.1675772,3.4198533 3.8071811,0 6.863762,-1.8574533 6.863762,-3.5099233 0,-0.723771 -0.390076,-1.658722 -1.234436,-2.1681073 0,0 0.113554,1.4443363 -1.0222012,1.3760083 0,0 0.9382062,-1.885393 -0.044413,-2.7489226 0,0 -0.4740722,0.9318571 -0.9777843,0.9597973 z"
         fill="url(#paint0_linear)"
         id="path1-4"
         style="fill:url(#paint0_linear);stroke-width:0.685369" /><path
         d="M 8.5362955,2.6653912 C 9.6423192,1.3825525 6.9017571,1.205504 6.8968318,0.41654189 c 0,0 -0.4839236,0.81380901 0.6716164,1.36981081 0.9431323,0.4503906 0.9678473,0.8790385 0.9678473,0.8790385 z"
         fill="url(#paint1_linear)"
         id="path2-2"
         style="fill:url(#paint1_linear);stroke-width:0.685369" /><path
         d="M 2.7193628,0.21137469 C 2.2996277,0.47229089 2.8773813,1.550126 1.5638749,1.9756642 c 0,0 -0.4444239,-1.18344081 1.1554879,-1.76428951 z"
         fill="url(#paint2_linear)"
         id="path3-0"
         style="fill:url(#paint2_linear);stroke-width:0.685369" /><path
         opacity="0.5"
         d="m -0.35698194,4.4729917 c -0.36541404,0.394528 -0.86414826,1.124442 -0.86414826,2.158812 0,1.155479 2.3406071,3.2801 6.1675772,3.2801 3.7380493,0 6.64159,-1.810923 6.64159,-3.367072 0,-0.562221 -0.246888,-1.279741 -0.795016,-1.78918 -0.03949,0.319949 -0.162979,0.754809 -0.543205,0.98159 -0.197544,0.11801 -0.4444318,0.170791 -0.7160333,0.1522 l -0.2765286,-0.01555 0.083991,-0.164649 C 9.3511228,5.6937527 10.067131,4.2214214 9.5486412,3.3485853 9.3412456,3.6685177 8.9857353,4.0816135 8.5511551,4.1033569 l -0.2468876,0.012445 0.00494,-0.1552996 C 8.3289849,3.317523 7.7017848,2.9758471 6.9759002,2.5813692 5.9389218,2.0160506 4.7686913,1.3761858 5.1982587,-0.24833431 4.4772992,0.01879529 3.0749237,0.75495459 3.4255174,2.2738571 3.6032999,3.0348633 3.1835564,3.6001818 3.1687456,3.6250343 l -0.049383,0.065209 -0.1086399,0.012446 C 2.8033274,3.7275333 2.5860551,3.6747303 2.388536,3.5566955 2.1218863,3.3920737 1.8799239,3.081458 1.8700459,2.6590242 1.4651324,2.9199405 0.90714293,3.370331 0.90714293,3.8828302 c 0,0.8417825 0.65181007,1.7487925 0.65675387,1.7580875 l 0.182707,0.25472 -0.434546,-0.05903 C 0.17631473,5.6813087 -0.24834515,5.0165687 -0.35698608,4.4729927 Z"
         fill="url(#paint3_linear)"
         id="path4-9"
         style="fill:url(#paint3_linear);stroke-width:0.685369" /><path
         d="M 6.8969185,0.41654189 C 6.7981514,0.88557159 7.0944633,1.5596057 7.5684482,1.7863527 8.0030285,1.9944661 8.4918775,2.3516721 8.5313695,2.6653912 9.2721183,1.7521835 8.230127,1.4136174 7.6326552,1.2800503 7.3808417,1.2241403 6.9166209,0.89799269 6.8969185,0.41654189 Z"
         fill="url(#paint4_radial)"
         id="path5-73"
         style="fill:url(#paint4_radial);stroke-width:0.685369" /><path
         d="M 4.6205765,0.28303459 C 2.9812001,1.8982315 5.109512,3.6035103 4.0132525,4.6254107 2.9170106,5.6473327 1.8059576,4.7030907 1.7318915,4.063191 c 0,0 0.00984,2.0687407 1.6344773,2.8856267 1.6245826,0.816939 -3.12575782,0.639897 -3.77756663,-0.357184 0,0 0,3.320433 5.35773143,3.320433 5.3577244,0 6.2515134,-3.09061 6.2515134,-3.09061 0,0 -1.9505576,1.046764 -3.2492001,0.229879 0,0 0.9727722,-1.071606 1.2196597,-2.171205 0,0 -0.6715308,0.267113 -1.7035839,0.164649 0,0 0.572759,-1.5437771 -0.5975585,-2.050074 C 5.3662515,2.3455186 4.0971616,0.79865929 4.6205765,0.28303459 Z"
         fill="url(#paint5_linear)"
         id="path6-7"
         style="fill:url(#paint5_linear);stroke-width:0.685369" /><path
         d="M 5.0304428,2.1836958 C 4.171219,2.8950026 5.8452487,4.7214067 4.087311,5.4451227 c -0.972799,0.400725 -1.5307884,-0.08072 -1.5307884,-0.08072 0,0 0.2617168,0.739264 1.3085283,1.397751 1.0469166,0.658488 -1.5751781,1.549953 -3.70345666,0.397572 0,0 0.73081992,2.767616 5.68365446,2.301663 5.4663473,-0.512483 5.0614063,-3.068866 5.0614063,-3.068866 0,0 -1.48141,1.466078 -3.5899331,0.764105 0,0 1.3283697,-1.164775 1.3283697,-1.832612 0,0 -0.8987143,0.335441 -1.925842,0.01239 0,0 0.4888485,-1.553051 -0.093842,-1.7860113 C 5.2279921,2.9881848 5.0304475,2.1836926 5.0304475,2.1836926 Z"
         fill="url(#paint6_linear)"
         id="path7"
         style="fill:url(#paint6_linear);stroke-width:0.685369" /><path
         opacity="0.5"
         d="M 8.5313695,3.9605094 C 8.5857291,2.2428102 4.437809,2.4788796 5.504428,-0.50923791 c 0,0 -2.7850391,0.6895689 -2.296172,2.80485101 C 3.3761414,3.0224548 2.9712279,3.5660307 2.9712279,3.5660307 2.5613801,3.6188337 1.9243726,3.1063178 2.146579,2.3142522 c 0,0 -1.46163854,0.6864599 -1.46163854,1.5685799 0,0.8821696 0.67649884,1.8171196 0.67649884,1.8171196 -1.68385462,-0.229879 -1.51595969,-1.658667 -1.51595969,-1.658667 0,0 -1.06660981,0.897661 -1.06660981,2.590519 0,1.316976 2.3603616,3.4198533 6.1675772,3.4198533 3.8071811,0 6.863762,-1.8574533 6.863762,-3.5099233 0,-0.723771 -0.390076,-1.658722 -1.234436,-2.1681073 0,0 0.113554,1.4443363 -1.0222012,1.3760083 0,0 0.9382062,-1.885393 -0.044413,-2.7489226 0,0 -0.4740722,0.9318571 -0.9777843,0.9597973 z"
         fill="url(#paint7_radial)"
         id="path8-2"
         style="fill:url(#paint7_radial);stroke-width:0.685369" /><path
         opacity="0.5"
         d="M 8.5313695,3.9605094 C 8.5857291,2.2428102 4.437809,2.4788796 5.504428,-0.50923791 c 0,0 -2.7850391,0.6895689 -2.296172,2.80485101 C 3.3761414,3.0224548 2.9712279,3.5660307 2.9712279,3.5660307 2.5613801,3.6188337 1.9243726,3.1063178 2.146579,2.3142522 c 0,0 -1.46163854,0.6864599 -1.46163854,1.5685799 0,0.8821696 0.67649884,1.8171196 0.67649884,1.8171196 -1.68385462,-0.229879 -1.51595969,-1.658667 -1.51595969,-1.658667 0,0 -1.06660981,0.897661 -1.06660981,2.590519 0,1.316976 2.3603616,3.4198533 6.1675772,3.4198533 3.8071811,0 6.863762,-1.8574533 6.863762,-3.5099233 0,-0.723771 -0.390076,-1.658722 -1.234436,-2.1681073 0,0 0.113554,1.4443363 -1.0222012,1.3760083 0,0 0.9382062,-1.885393 -0.044413,-2.7489226 0,0 -0.4740722,0.9318571 -0.9777843,0.9597973 z"
         fill="url(#paint8_radial)"
         id="path9"
         style="fill:url(#paint8_radial);stroke-width:0.685369" /><path
         d="m -0.88526107,5.9111857 c 0.11357625,1.754934 2.40973907,3.857811 5.99969967,3.857811 3.5898467,0 5.3823514,-2.382384 5.4959864,-3.77709 0,0 -0.6716158,0.820038 -2.1875932,0.984687 -1.5159762,0.164594 0.1037001,-1.640077 -0.9579091,-2.708584 0,0 -0.9382925,1.860606 -2.2715014,1.928933 -1.333295,0.06832 -2.4640696,-1.230058 -2.4640696,-1.928933 0,0 -0.8197052,1.257998 -0.6172531,2.258177 0.3110943,1.518914 -2.99735967,-0.615001 -2.99735967,-0.615001 z"
         fill="url(#paint9_radial)"
         id="path10"
         style="fill:url(#paint9_radial);stroke-width:0.685369" /><path
         opacity="0.5"
         d="M 8.5313695,3.9605094 C 8.5857291,2.2428102 4.437809,2.4788796 5.504428,-0.50923791 c 0,0 -2.7850391,0.6895689 -2.296172,2.80485101 C 3.3761414,3.0224548 2.9712279,3.5660307 2.9712279,3.5660307 2.5613801,3.6188337 1.9243726,3.1063178 2.146579,2.3142522 c 0,0 -1.46163854,0.6864599 -1.46163854,1.5685799 0,0.8821696 0.67649884,1.8171196 0.67649884,1.8171196 -1.68385462,-0.229879 -1.51595969,-1.658667 -1.51595969,-1.658667 0,0 -1.06660981,0.897661 -1.06660981,2.590519 0,1.316976 2.3603616,3.4198533 6.1675772,3.4198533 3.8071811,0 6.863762,-1.8574533 6.863762,-3.5099233 0,-0.723771 -0.390076,-1.658722 -1.234436,-2.1681073 0,0 0.113554,1.4443363 -1.0222012,1.3760083 0,0 0.9382062,-1.885393 -0.044413,-2.7489226 0,0 -0.4740722,0.9318571 -0.9777843,0.9597973 z"
         fill="url(#paint10_radial)"
         id="path11"
         style="fill:url(#paint10_radial);stroke-width:0.685369" /><path
         opacity="0.5"
         d="M 8.5362955,2.6653912 C 9.6423192,1.3825525 6.9017571,1.205504 6.8968318,0.41654189 c 0,0 -0.4839236,0.81380901 0.6716164,1.36981081 0.9431323,0.4503906 0.9678473,0.8790385 0.9678473,0.8790385 z"
         fill="url(#paint11_radial)"
         id="path12"
         style="fill:url(#paint11_radial);stroke-width:0.685369" /><path
         d="M 2.7193628,0.21137469 C 2.3045714,0.47229089 2.5712225,1.2954168 1.5638749,1.9756642 c 0,0 -0.4444239,-1.18344081 1.1554879,-1.76428951 z"
         fill="url(#paint12_radial)"
         id="path13"
         style="fill:url(#paint12_radial);stroke-width:0.685369" /><path
         opacity="0.5"
         d="M 2.7193628,0.21137469 C 2.2996277,0.47229089 2.8773813,1.550126 1.5638749,1.9756642 c 0,0 -0.4444239,-1.18344081 1.1554879,-1.76428951 z"
         fill="url(#paint13_radial)"
         id="path14"
         style="fill:url(#paint13_radial);stroke-width:0.685369" /><path
         opacity="0.5"
         d="M 8.5313695,3.9605094 C 8.5857291,2.2428102 4.437809,2.4788796 5.504428,-0.50923791 c 0,0 -2.7850391,0.6895689 -2.296172,2.80485101 C 3.3761414,3.0224548 2.9712279,3.5660307 2.9712279,3.5660307 2.5613801,3.6188337 1.9243726,3.1063178 2.146579,2.3142522 c 0,0 -1.46163854,0.6864599 -1.46163854,1.5685799 0,0.8821696 0.67649884,1.8171196 0.67649884,1.8171196 -1.68385462,-0.229879 -1.51595969,-1.658667 -1.51595969,-1.658667 0,0 -1.06660981,0.897661 -1.06660981,2.590519 0,1.316976 2.3603616,3.4198533 6.1675772,3.4198533 3.8071811,0 6.863762,-1.8574533 6.863762,-3.5099233 0,-0.723771 -0.390076,-1.658722 -1.234436,-2.1681073 0,0 0.113554,1.4443363 -1.0222012,1.3760083 0,0 0.9382062,-1.885393 -0.044413,-2.7489226 0,0 -0.4740722,0.9318571 -0.9777843,0.9597973 z"
         fill="url(#paint14_radial)"
         id="path15"
         style="fill:url(#paint14_radial);stroke-width:0.685369" /><path
         opacity="0.25"
         d="M 8.5313695,3.9605094 C 8.5857291,2.2428102 4.437809,2.4788796 5.504428,-0.50923791 c 0,0 -2.7850391,0.6895689 -2.296172,2.80485101 C 3.3761414,3.0224548 2.9712279,3.5660307 2.9712279,3.5660307 2.5613801,3.6188337 1.9243726,3.1063178 2.146579,2.3142522 c 0,0 -1.46163854,0.6864599 -1.46163854,1.5685799 0,0.8821696 0.67649884,1.8171196 0.67649884,1.8171196 -1.68385462,-0.229879 -1.51595969,-1.658667 -1.51595969,-1.658667 0,0 -1.06660981,0.897661 -1.06660981,2.590519 0,1.316976 2.3603616,3.4198533 6.1675772,3.4198533 3.8071811,0 6.863762,-1.8574533 6.863762,-3.5099233 0,-0.723771 -0.390076,-1.658722 -1.234436,-2.1681073 0,0 0.113554,1.4443363 -1.0222012,1.3760083 0,0 0.9382062,-1.885393 -0.044413,-2.7489226 0,0 -0.4740722,0.9318571 -0.9777843,0.9597973 z"
         fill="url(#paint15_radial)"
         id="path16"
         style="fill:url(#paint15_radial);stroke-width:0.685369" /><path
         opacity="0.25"
         d="M 8.5313695,3.9605094 C 8.5857291,2.2428102 4.437809,2.4788796 5.504428,-0.50923791 c 0,0 -2.7850391,0.6895689 -2.296172,2.80485101 C 3.3761414,3.0224548 2.9712279,3.5660307 2.9712279,3.5660307 2.5613801,3.6188337 1.9243726,3.1063178 2.146579,2.3142522 c 0,0 -1.46163854,0.6864599 -1.46163854,1.5685799 0,0.8821696 0.67649884,1.8171196 0.67649884,1.8171196 -1.68385462,-0.229879 -1.51595969,-1.658667 -1.51595969,-1.658667 0,0 -1.06660981,0.897661 -1.06660981,2.590519 0,1.316976 2.3603616,3.4198533 6.1675772,3.4198533 3.8071811,0 6.863762,-1.8574533 6.863762,-3.5099233 0,-0.723771 -0.390076,-1.658722 -1.234436,-2.1681073 0,0 0.113554,1.4443363 -1.0222012,1.3760083 0,0 0.9382062,-1.885393 -0.044413,-2.7489226 0,0 -0.4740722,0.9318571 -0.9777843,0.9597973 z"
         fill="url(#paint16_radial)"
         id="path17"
         style="fill:url(#paint16_radial);stroke-width:0.685369" /><path
         opacity="0.25"
         d="M 8.5313695,3.9605094 C 8.5857291,2.2428102 4.437809,2.4788796 5.504428,-0.50923791 c 0,0 -2.7850391,0.6895689 -2.296172,2.80485101 C 3.3761414,3.0224548 2.9712279,3.5660307 2.9712279,3.5660307 2.5613801,3.6188337 1.9243726,3.1063178 2.146579,2.3142522 c 0,0 -1.46163854,0.6864599 -1.46163854,1.5685799 0,0.8821696 0.67649884,1.8171196 0.67649884,1.8171196 -1.68385462,-0.229879 -1.51595969,-1.658667 -1.51595969,-1.658667 0,0 -1.06660981,0.897661 -1.06660981,2.590519 0,1.316976 2.3603616,3.4198533 6.1675772,3.4198533 3.8071811,0 6.863762,-1.8574533 6.863762,-3.5099233 0,-0.723771 -0.390076,-1.658722 -1.234436,-2.1681073 0,0 0.113554,1.4443363 -1.0222012,1.3760083 0,0 0.9382062,-1.885393 -0.044413,-2.7489226 0,0 -0.4740722,0.9318571 -0.9777843,0.9597973 z"
         fill="url(#paint17_radial)"
         id="path18"
         style="fill:url(#paint17_radial);stroke-width:0.685369" /></g></g></svg>
